<svg xmlns="http://www.w3.org/2000/svg" xmlns:xlink="http://www.w3.org/1999/xlink" width="34" height="30" xmlns:v="https://vecta.io/nano"><defs><path id="A" d="M.328.374h18.59v8.003H.328z"/></defs><g fill="none" fill-rule="evenodd"><g fill="#333"><path d="M3.74 9.731l1.877 14.2 21.417-2.664 6.179-7.987-8.052-6.213L3.74 9.731zm.905.7l20.287-2.523 7.15 5.517-5.48 7.084-20.29 2.524L4.644 10.43z"/><path d="M3.732 9.67l-.061.008 1.893 14.321 21.503-2.674 6.232-8.056-8.12-6.266L3.732 9.67zm.077.114l21.334-2.652 7.984 6.16-6.125 7.917L5.67 23.863 3.809 9.784zm.828.586l-.061.007L6.258 23.1l20.377-2.533 5.533-7.153-7.219-5.57L4.637 10.37zm.077.114l20.2-2.512 7.082 5.464-5.427 7.015-20.205 2.513-1.65-12.48zm19.523 3.915c-.133-1.008.6-1.93 1.64-2.059s1.988.583 2.122 1.591-.601 1.929-1.64 2.058-1.989-.583-2.122-1.59m1.883-2.012a1.87 1.87 0 0 0-.236.015c-.496.061-.935.31-1.235.697-.288.372-.412.831-.351 1.291.128.973 1.05 1.664 2.053 1.538.497-.062.936-.31 1.236-.698.287-.372.412-.83.35-1.291-.117-.896-.91-1.552-1.818-1.552m-.002 3.678c-.97 0-1.815-.7-1.941-1.658a1.85 1.85 0 0 1 .375-1.383c.32-.414.789-.679 1.318-.744 1.07-.137 2.054.604 2.19 1.643a1.85 1.85 0 0 1-.375 1.382 1.956 1.956 0 0 1-1.567.76"/></g><path d="M14.942 17.958c.322-.033.588-.138.797-.314a.832.832 0 0 0 .314-.664c0-.252-.08-.445-.242-.579s-.45-.252-.87-.359v1.916zm-1.533-4.3c0 .213.074.38.221.504s.382.221.705.294V12.83a.98.98 0 0 0-.659.23.75.75 0 0 0-.267.598zm.926-2.763h.607v.768c.706.073 1.26.291 1.661.654s.62.852.654 1.471h-1.461a1.06 1.06 0 0 0-.268-.689.77.77 0 0 0-.586-.269v1.766c.912.193 1.569.467 1.97.823s.602.877.602 1.561c0 .333-.103.664-.309.993a2.276 2.276 0 0 1-.895.803c-.39.206-.847.322-1.368.35v.847h-.607v-.847c-.748-.047-1.343-.277-1.785-.689s-.701-1.011-.776-1.796h1.46v.03c0 .34.1.622.298.848s.467.373.803.439v-2.085l-.946-.27a4.456 4.456 0 0 1-.587-.274 1.658 1.658 0 0 1-.606-.578c-.165-.256-.248-.574-.248-.953a1.9 1.9 0 0 1 .644-1.472c.428-.389 1.01-.61 1.743-.663v-.768z" fill="#f16322"/><path fill="#333" d="M10.335 7.926l7.38-7.37L28.453.554l.236 7.817-.906-.677-.16-6.311-9.545.003-6.412 6.374z"/><g transform="translate(9.836 .118)"><mask id="B" fill="#fff"><use xlink:href="#A"/></mask><path d="M18.006 7.543l.78.583-.23-7.63L7.906.5.67 7.724l1.13-.142 6.415-6.376 9.63-.004.002.06.16 6.281zm.912.834l-1.033-.771-.16-6.28-9.459.003-6.408 6.37-1.53.192L7.854.377l10.82-.004.003.06.24 7.944z" fill="#333" mask="url(#B)"/></g><g fill="#333"><path d="M19.389 23.053l-6.498 6.488-5.326-5.017 1.092-.144 4.216 3.99 5.131-5.135z"/><path d="M7.701 24.568l5.188 4.888 6.328-6.318-1.184.155-5.158 5.162-.044-.041-4.195-3.97-.935.124zm5.19 5.058l-.042-.04-5.421-5.106 1.25-.165 4.194 3.969 5.103-5.107.021-.003 1.564-.205-6.668 6.657zM3.676 20.014l.174 1.357L.09 17.828l2.909-2.906.133 1.088-1.835 1.8z"/><path d="M.177 17.826l3.59 3.382-.15-1.164-2.41-2.232 1.859-1.825-.114-.932-2.775 2.771zm3.756 3.708L0 17.829l3.043-3.039.152 1.243-.021.02-1.788 1.756 2.348 2.175.2 1.55z"/></g></g></svg>