<svg xmlns="http://www.w3.org/2000/svg" width="23" height="29"  fill-rule="evenodd" xmlns:v="https://vecta.io/nano"><path d="M16.92 9.668L.913 5.268C.304 5.1-.048 4.492.126 3.91L1.024.905c.175-.582.81-.919 1.42-.751l16.005 4.4c.61.167.962.775.788 1.358l-.898 3.004c-.175.583-.81.92-1.42.752" fill="#f16322"/><g fill="#333"><path d="M8.566 14.856l-.87-.246.37-1.389 12.512.445 1.436-5.155.867.256-1.63 5.852-12.503-.444-.182.68zM3.597 27.16l2.038.602 3.008-10.8-2.039-.603L3.597 27.16zm2.657 1.75l-3.773-1.113L5.986 15.21l3.773 1.115-3.505 12.586z"/><path d="M7.706 14.609l.86.243.18-.68h.004l12.493.445 1.626-5.841-.857-.254-1.434 5.152h-.004L8.073 13.23l-.367 1.379zm.866.255l-.004-.001-.874-.247.001-.005.37-1.391h.004l12.5.444 1.437-5.153h.004l.871.258-.001.005-1.63 5.853h-.004l-12.492-.444-.182.681zM3.61 27.152l2.028.598L8.64 16.966l-2.028-.6L3.61 27.152zm2.034.61h-.005l-2.041-.603.001-.005 3.006-10.8 2.048.605-.002.005-3.007 10.799zm-3.15.026l3.762 1.11 3.5-12.568-3.762-1.112-3.5 12.57zm3.768 1.123l-.004-.002-3.776-1.114.002-.005 3.508-12.583 3.776 1.116-.001.005L6.26 28.91zM19.935 9.71l-.654-.214.547-2.185.653.214z"/><path d="M19.29 9.489l.642.212.54-2.169-.641-.211-.54 2.168zm.647.222l-.004-.001-.652-.215.545-2.184h.004l.651.216v.004l-.544 2.18z"/></g></svg>