<svg xmlns="http://www.w3.org/2000/svg" xmlns:xlink="http://www.w3.org/1999/xlink" width="28" height="30" xmlns:v="https://vecta.io/nano"><defs><path id="A" d="M.15.038h14.815V14.5H.15z"/></defs><g fill="none" fill-rule="evenodd"><path d="M8.765 7.177h10.896v-.943H8.765zm0 6.896h6.97v-.944h-6.97zm0 7.014h4.953v-1.044H8.765zM3.94 8.005h2.39V5.697H3.94v2.308zm-.881.88H7.21V4.816H3.06v4.07zM3.94 21.01h2.39v-2.307H3.94v2.307zm-.881.88H7.21v-4.068H3.06v4.069zm.881-7.383h2.39V12.2H3.94v2.307zm-.881.881H7.21V11.32H3.06v4.068zM13.15 27.016H.943V1.443H22.93v13.145c.323.09.638.197.944.322V.5H0v27.46h13.822a8.458 8.458 0 0 1-.672-.944" fill="#333"/><g transform="translate(13 15.421)"><mask id="B" fill="#fff"><use xlink:href="#A"/></mask><path d="M6.897 11.122L4.423 8.298l.71-.622 1.603 1.83 3.21-5.6.819.469-3.868 6.747zM7.557.038C3.468.038.15 3.276.15 7.27s3.317 7.231 7.408 7.231 7.407-3.237 7.407-7.23S11.649.039 7.558.039z" fill="#f16322" mask="url(#B)"/></g></g></svg>