<svg xmlns="http://www.w3.org/2000/svg" width="30" height="31"  fill="none" fill-rule="evenodd" xmlns:v="https://vecta.io/nano"><path fill="#e26030" d="M9.455 15.73h4.651l.888-1.222.888 1.222h4.652l-3.214-4.423 3.214-4.424h-4.652l-.888 1.223-.888-1.223H9.455l3.213 4.424-3.213 4.423"/><g stroke-width=".5"><path d="M15.034 20.583c-5.307 0-9.625-4.162-9.625-9.276s4.318-9.276 9.625-9.276 9.625 4.161 9.625 9.276-4.318 9.276-9.625 9.276zm0-19.456c-5.825 0-10.563 4.567-10.563 10.18s4.738 10.18 10.563 10.18 10.563-4.567 10.563-10.18-4.738-10.18-10.563-10.18h0zm8.548 18.003l-.057.063a11.98 11.98 0 0 1-.63.65l-.023.02 2.453 6.854-3.793-.835-2.451 2.911-2.148-6-.042.007a11.5 11.5 0 0 1-.826.103l-.063.005 2.749 7.683 3.134-3.722 4.85 1.068-3.153-8.807m-9.579 3.773a11.245 11.245 0 0 1-.826-.103l-.042-.007-2.148 6-2.452-2.911-3.792.835 2.453-6.854-.022-.02a11.2 11.2 0 0 1-.632-.65l-.057-.063-3.152 8.807 4.85-1.068 3.134 3.722 2.749-7.683-.063-.005" stroke="#2d2d2c" fill="#2d2e2c"/><path stroke-opacity=".01" stroke="#fff" d="M.25 1.25h28.667v28.667H.25z"/></g></svg>