<svg xmlns="http://www.w3.org/2000/svg" xmlns:xlink="http://www.w3.org/1999/xlink" width="25" height="30" xmlns:v="https://vecta.io/nano"><defs><path id="A" d="M0 .045h16.336V29.5H0z"/></defs><g fill="none" fill-rule="evenodd"><path fill="#333" d="M.452 6h15.432v-.963H.452z"/><g transform="translate(0 .454)"><mask id="B" fill="#fff"><use xlink:href="#A"/></mask><path d="M15.372 23.166v4.217c0 .635-.517 1.153-1.154 1.153h-12.1a1.155 1.155 0 01-1.154-1.153V2.163c0-.636.518-1.154 1.154-1.154h12.1c.637 0 1.154.518 1.154 1.154v6.7h.964v-6.7A2.12 2.12 0 0014.218.045h-12.1A2.12 2.12 0 000 2.163v25.22A2.12 2.12 0 002.118 29.5h12.1a2.12 2.12 0 002.118-2.117v-5.037l-.964.82z" fill="#333" mask="url(#B)"/></g><path d="M16.4 18.837l-2.401-2.74.689-.604 1.556 1.776 3.116-5.436.794.456-3.754 6.548zm6.61-8.628H11.091c-.978 0-1.772.793-1.772 1.772v6.463c0 .978.794 1.77 1.772 1.77h1.926v3.906l4.593-3.905h5.4c.978 0 1.772-.793 1.772-1.771V11.98c0-.979-.794-1.772-1.772-1.772z" fill="#f16322"/></g></svg>