<svg xmlns="http://www.w3.org/2000/svg" xmlns:xlink="http://www.w3.org/1999/xlink" width="37" height="28" xmlns:v="https://vecta.io/nano"><defs><path id="A" d="M0 27.927h36.662V0H0z"/></defs><g fill-rule="evenodd"><path d="M14.733 16.52l-7.137-3.696H4.493V.91H14.4l6.674 15.61h-6.342zm21.929 6.086H26.029V3.498h-.91v13.021h-3.054L15 0H3.583v12.825H0v10.692h2.622c.113-.32.264-.626.452-.91H.91v-8.872h6.464l7.137 3.695H25.12v5.177h-2.372a4.14 4.14 0 0 1 .454.91h13.461v-.91zm-26.73 0a4.09 4.09 0 0 1 .453.91h5.052a4.12 4.12 0 0 1 .453-.91H9.932zm-3.432.017a2.18 2.18 0 0 0-1.503.596 2.2 2.2 0 0 0 1.505 3.799 2.17 2.17 0 0 0 1.6-.693 2.18 2.18 0 0 0 .592-1.646A2.222 2.222 0 0 0 6.5 22.623m0 5.304a3.11 3.11 0 0 1-3.106-3.106 3.12 3.12 0 0 1 .98-2.265 3.082 3.082 0 0 1 2.323-.836 3.106 3.106 0 0 1 2.904 2.903 3.083 3.083 0 0 1-.836 2.325c-.586.622-1.41.98-2.264.98m12.825-5.305a2.18 2.18 0 0 0-1.504.596 2.2 2.2 0 0 0 1.504 3.799c.613 0 1.182-.246 1.602-.693a2.18 2.18 0 0 0 .591-1.646 2.223 2.223 0 0 0-2.193-2.056m0 5.304a3.11 3.11 0 0 1-3.106-3.106 3.12 3.12 0 0 1 .98-2.265 3.106 3.106 0 1 1 2.127 5.37" fill="#333"/><mask id="B" fill="#fff"><use xlink:href="#A"/></mask><path fill="#f16322" mask="url(#B)" d="M28.89 20.03h5.62v-5.62h-5.62zm0-7.397h5.62v-5.62h-5.62z"/></g></svg>