<svg class="sui-h-4 sui-w-4 lg:sui-h-6 lg:sui-w-6" viewBox="0 0 24 24" focusable="false" aria-hidden="true" data-testid="BucketIcon"><path d="M3.375 6.75C2.75368 6.75 2.25 7.25368 2.25 7.875C2.25 8.49632 2.75368 9 3.375 9H4.875V21.75H18.375V13.966L11.534 7.125H8.625V4.875H12.466L23.6705 16.0795L22.0795 17.6705L20.625 16.216V24H2.625V11.1664C1.12201 10.8253 0 9.48119 0 7.875C0 7.0106 0.32496 6.2221 0.85938 5.625C0.32496 5.0279 0 4.2394 0 3.375C0 1.51104 1.51104 0 3.375 0H19.875C21.739 0 23.25 1.51104 23.25 3.375C23.25 4.2394 22.925 5.02789 22.3906 5.625C22.925 6.2221 23.25 7.0106 23.25 7.875C23.25 9.1224 22.5733 10.2117 21.5669 10.7959L19.771 9H19.875C20.4963 9 21 8.49632 21 7.875C21 7.25368 20.4963 6.75 19.875 6.75H18.375V4.5H19.875C20.4963 4.5 21 3.99632 21 3.375C21 2.75368 20.4963 2.25 19.875 2.25H3.375C2.75368 2.25 2.25 2.75368 2.25 3.375C2.25 3.99632 2.75368 4.5 3.375 4.5H4.875V6.75H3.375Z"></path></svg>