<svg xmlns="http://www.w3.org/2000/svg" width="85" height="85"  fill-rule="evenodd" xmlns:v="https://vecta.io/nano"><path fill="#fff" d="M.117.11h84.868v84.682H.117z"/><path d="M.117.11l66.099.01-3.59 3.592 1.443 1.45c1.087-.748 2.317-1.343 3.654-1.442 1.203-.124 2.415.187 3.52.668.419.177.811.462 1.283.506.464-.026.811-.435.972-.845.133-.284.009-.622-.214-.827L70.183.12 84.986.11v14.424l-3.013-3.006c-.268-.276-.704-.418-1.07-.249-.24.116-.472.303-.579.56-.134.516.099 1.023.303 1.485.624 1.316.9 2.801.714 4.251a6.904 6.904 0 0 1-1.017 2.801 9.287 9.287 0 0 0-.4.632c.516.444.953.977 1.479 1.413l3.583-3.592v24.09c-.233.08-.49.24-.732.123-.32-.204-.561-.506-.828-.764l-8.645-8.608-3.45 3.424c.616.693 1.303 1.307 1.944 1.974l6.96 6.936c.196.204.428.382.535.65.035.293-.17.541-.25.808-.115.312.134.685.464.694.294.053.544-.143.73-.338l3.272-3.264v40.238H44.65l3.101-3.085-10.543-10.52-3.395 3.361c-.24.25-.508.49-.624.827-.053.33.25.64.57.658.286-.035.526-.222.811-.284.25-.018.446.178.624.338l6.275 6.27 1.585 1.617c.224.25.072.57-.053.818H18.877l5.694-5.682c.356-.338.722-.729.775-1.245.08-.595-.525-1.191-1.122-1.067-.5.098-.91.49-1.426.49-.33-.027-.58-.268-.802-.48L8.405 63.246c-.303-.302-.668-.595-.776-1.032-.017-.515.348-.933.482-1.404.17-.596-.392-1.246-.999-1.2-.418.026-.792.266-1.077.56L.117 66.092V.11" fill="#f96302"/><path d="M61.333 4.992c.08-.088.223-.169.303-.035a19196.86 19196.86 0 0 1 18.626 18.585l-6.532 6.527c-.286.267-.633.489-1.025.515-.544.045-1.088-.444-1.043-.996.018-.542.481-.96.49-1.511.018-.347-.25-.605-.472-.845L57.866 13.449c-.258-.25-.543-.56-.936-.534-.579.01-1.015.543-1.603.48-.34.01-.616-.258-.785-.533-.232-.48-.018-1.058.33-1.414l6.461-6.456m8.947 1.805c.179-.329.518-.63.918-.578.446.036.767.4 1.06.694l5.348 5.344c.339.33.74.65.82 1.139.045.506-.419.96-.909 1.013-.41.01-.784-.213-1.14-.409-.758-.444-1.613-.8-2.514-.756-.463-.009-.908.178-1.328.365l-1.515-1.538c.143-.4.33-.783.357-1.21.063-.969-.33-1.894-.82-2.703-.25-.4-.446-.899-.276-1.36M31.005 11.51l2.941-2.97 2.71 2.686c.294.284.026.764-.303.88-.277.036-.517-.151-.767-.24-.962-.471-2.156-.524-3.119-.009-.25.107-.454.32-.722.365-.267-.214-.49-.48-.74-.712m-.605.57l3.867 3.84 6.07 6.048a431.697 431.697 0 0 1-3.494 3.486c-.24.266-.722.382-.954.053-.285-.303.027-.676.116-.987.107-.232-.08-.436-.232-.596a2665.42 2665.42 0 0 1-6.987-6.972c-.213-.195-.392-.435-.65-.569-.356-.08-.633.24-.98.258-.268-.026-.517-.293-.481-.569.017-.213.142-.4.294-.551l3.43-3.442m4.653 1.423a.525.525 0 0 1 .4-.693c.233-.036.42.142.58.293l2.896 2.881c.17.187.41.356.428.632.036.275-.232.542-.517.515-.374 0-.66-.293-.998-.418-.499-.23-1.105-.249-1.595.018l-.785-.765c.117-.391.224-.809.125-1.218-.07-.462-.392-.818-.534-1.245m17.066.694c.24-.24.543-.418.882-.463.597-.088 1.221.49 1.106 1.094-.08.534-.526.96-.49 1.521.088.39.41.658.667.934l13.645 13.605c.25.222.499.516.855.516.535 0 .945-.4 1.453-.49.588-.097 1.168.48 1.096 1.068-.035.4-.276.747-.552 1.022l-6.863 6.847c-.294.294-.668.56-1.104.56-.482.027-.945-.382-1.008-.853-.062-.623.517-1.085.5-1.708-.027-.293-.232-.533-.428-.747l-11.996-11.96 9.946 18.363a2.23 2.23 0 0 1 .142.294l-.703.702-19.848-9.808c-1.042-.516-2.076-1.12-3.252-1.263-.393-.054-.66.267-.945.471-.294.232-.687.374-1.051.258-.437-.195-.74-.711-.606-1.183.088-.32.311-.586.543-.818l6.408-6.375 10.017 4.846c.107.08.222.16.32.267l.152-.187-.125.018-5.356-9.96 6.595-6.571m-11.701 1.503c.16-.294.615-.33.828-.08l2.727 2.72a341.183 341.183 0 0 1-3.065 3.05c-.232-.266-.544-.48-.722-.79.294-.499.606-1.006.686-1.592.152-.81.018-1.663-.33-2.41-.098-.285-.311-.614-.124-.898m-14.963 1.333c.178-.186.374-.382.632-.444.259-.053.58.107.615.391.063.311-.169.57-.231.871-.036.24.16.41.302.57l7.13 7.113c.16.152.33.339.562.392.285-.027.525-.214.802-.276a.53.53 0 0 1 .543.65c-.044.24-.231.417-.392.586a1313.974 1313.974 0 0 1-3.476 3.46c-.204.204-.472.417-.775.346a.674.674 0 0 1-.374-.373c-.09-.391.33-.712.231-1.103-.089-.15-.213-.267-.33-.391l-3.261-3.246a66.49 66.49 0 0 1-1.159 1.156 16.445 16.445 0 0 1-.784-.791l1.168-1.156-2.87-2.855c-.205-.195-.383-.409-.624-.55-.436-.143-.855.47-1.274.132-.34-.24-.232-.72.044-.97l3.52-3.512m-4.563 4.616c.268-.17.67-.063.794.24.125.364-.205.676-.214 1.031-.01.187.142.32.258.445l7.397 7.38c.446.48 1.016-.346 1.497.01.312.249.206.737-.062.969l-3.476 3.476c-.187.179-.374.392-.632.472-.286.08-.633-.098-.668-.4-.054-.356.267-.632.249-.979a1.02 1.02 0 0 0-.25-.39l-6.996-6.981c-.222-.205-.41-.463-.704-.57-.32-.017-.588.223-.9.258-.267.01-.499-.23-.508-.488-.026-.276.17-.498.357-.685l3.467-3.468c.124-.116.24-.231.392-.32m-6.444 6.358l1.587-1.574 2.79 2.765c.16.178.355.338.444.57.108.435-.391.915-.828.72s-.784-.543-1.203-.774c-.704-.436-1.524-.711-2.362-.613l-.722-.747c.071-.143.187-.24.294-.347m-3.885 3.877l2.967-2.953a1657.68 1657.68 0 0 0 5.632 5.62l3.084 3.068c.294.33.686.054 1.007-.062.32-.142.696.143.687.48 0 .231-.134.427-.285.587l-3.61 3.602c-.17.169-.383.337-.633.32-.276.027-.544-.24-.517-.507.018-.285.24-.516.24-.8.019-.24-.186-.392-.329-.552l-8.51-8.474.267-.33m66.884-.871a288.939 288.939 0 0 1 3.289 3.281c.347.33.097.987-.366 1.059-.428.062-.758-.276-1.087-.498-.883-.605-1.925-1.174-3.03-.987a6.756 6.756 0 0 1-.82-.854l2.014-2M9.653 32.816c.33.125.534.498.802.73-.143 1.031.347 2 .926 2.81.17.258.375.498.481.791.117.391-.267.8-.659.756-.223 0-.374-.187-.517-.32l-2.923-2.917 1.89-1.85m19.829 5.016c1.773-.57 3.698-.632 5.525-.258 3.102.658 5.846 2.472 8.039 4.722 2.147 2.17 3.859 4.89 4.438 7.923.32 1.663.25 3.405-.231 5.033-.473 1.61-1.33 3.095-2.407 4.375l-1.417-1.44c0-.24.151-.445.196-.676.24-.783 0-1.663-.597-2.233L29.802 42.073c-.4-.409-.908-.738-1.488-.782-.472-.062-.936.107-1.381.266-.179.098-.294-.123-.41-.213l-1.105-1.12c0-.027-.01-.08-.01-.107a11.883 11.883 0 0 1 4.074-2.285m12.013-.489c.41.133.784.338 1.168.533l4.304 2.117c.125.062.24.16.348.257l3.653 3.655a6.343 6.343 0 0 0 2.389 1.583 2.91 2.91 0 0 0 1.978.018c.321-.107.669-.231 1.007-.125a.997.997 0 0 1 .615.836c-.027.49-.339.898-.668 1.236a286.68 286.68 0 0 1-3.298 3.282c-.294.267-.632.542-1.042.586-.588.09-1.168-.533-.99-1.102.17-.578.402-1.165.304-1.77-.143-1.014-.722-1.912-1.364-2.685l-7.263-7.257-1.14-1.164m27.18 2.418l2.015-2.009c.294.24.552.525.828.791-.115.89.188 1.77.651 2.517.24.427.588.791.802 1.236.116.213.036.453-.044.666a11.446 11.446 0 0 1 2.896 2.81c.9 1.272 1.533 2.784 1.497 4.367.009 1.503-.642 2.943-1.595 4.081-.259-.267-.562-.506-.785-.809.045-.33.205-.649.125-.978-.089-.427-.419-.73-.713-1.023a5183.01 5183.01 0 0 1-7.04-7.016c-.232-.23-.508-.444-.838-.47-.312-.037-.624.052-.909.15l-.82-.8c1.186-1.014 2.727-1.663 4.305-1.583.606-.018 1.194.125 1.782.258l-2.157-2.188m-46.636 5.22c.49-1.36 1.266-2.605 2.184-3.717l1.381 1.378c.089.285-.142.552-.187.836-.232.765.071 1.601.633 2.152l13.011 12.983c.42.454.927.88 1.568.978.57.09 1.133-.106 1.658-.302l1.444 1.432a12.18 12.18 0 0 1-3.574 2.143c-1.96.755-4.153.88-6.212.427-3.128-.685-5.881-2.561-8.083-4.847-2.031-2.125-3.672-4.73-4.25-7.639-.392-1.929-.268-3.974.427-5.824m40.505 2.57c.107-1.351.704-2.64 1.596-3.655l.801.8c-.098.321-.25.659-.16.996.053.303.258.543.472.757l7.04 7.024c.277.267.544.587.937.694.356.098.721-.027 1.069-.134l.802.819c-1.123.924-2.522 1.574-4.001 1.574-1.435.062-2.843-.445-4.037-1.192a10.336 10.336 0 0 1-2.317-1.992c.311 1.04.24 2.206-.25 3.184-.481.96-1.23 1.743-1.97 2.499a63.014 63.014 0 0 0-.82-.81c.232-.373.384-.818.241-1.254-.17-.444-.535-.764-.855-1.102l-1.997-2c-.392-.366-.811-.784-1.372-.82-.33-.034-.624.134-.9.294l-.82-.808c1.069-1.077 2.29-2.188 3.859-2.384 1.283-.214 2.575.338 3.484 1.218-.57-1.138-.927-2.419-.802-3.708M15.57 50.655c.267-.258.615-.454.99-.48.614-.036 1.176.604 1.006 1.2-.133.453-.463.853-.48 1.343.035.426.391.729.677 1.013l13.724 13.695c.214.204.454.408.757.435.517 0 .918-.382 1.408-.498.588-.115 1.177.418 1.15 1.005-.018.4-.24.765-.517 1.05l-6.907 6.891c-.303.294-.677.551-1.113.551a1 1 0 0 1-.99-1.031c.054-.533.5-.96.509-1.512-.018-.329-.277-.578-.482-.809l-6.15-6.136c-.08-.062-.186-.24-.302-.116l-2.113 2.09-1.443-1.449a67.66 67.66 0 0 1 2.12-2.116c0-.036.01-.116.01-.152l-5.757-5.726c-.294-.276-.571-.623-.98-.72-.562-.036-.999.4-1.525.497-.677.116-1.292-.649-1.06-1.28.116-.445.472-.765.784-1.067l6.684-6.678m39.792 2.401l3.128 3.085 6.007 6.002c.142.116.276.276.463.312.384.036.686-.338 1.07-.267.232.08.445.303.419.56 0 .347-.295.587-.509.818l-3.751 3.726c-.277.303-.794.151-.963-.186-.25-.418.428-.863.072-1.245a3074.33 3074.33 0 0 1-7.745-7.728c-.187-.169-.347-.382-.57-.498-.384-.107-.687.214-1.043.258-.276-.027-.544-.267-.526-.551-.027-.312.205-.551.4-.756a1262.48 1262.48 0 0 0 3.548-3.53m-7.949 7.923l3.172-3.14 2.87 2.873c.32.311-.018.782-.348.925-.231.026-.446-.116-.65-.205-.82-.4-1.765-.596-2.665-.364-.57.115-1.07.435-1.569.728l-.81-.817m-4.332 4.331l3.708-3.7 5.97 5.931 4.59 4.571-3.618 3.637c-.17.187-.41.293-.633.391-.222-.08-.499-.16-.57-.409-.134-.418.303-.747.25-1.156-.179-.347-.49-.596-.758-.871l-6.497-6.483c-.383-.356-.704-.782-1.158-1.049-.455-.09-.865.489-1.301.177-.374-.24-.268-.773.017-1.04m8.645-2.205c-.143-.365.196-.792.58-.73.177.045.31.16.436.285l2.807 2.81c.303.312.695.578.82 1.023-.116.196-.24.462-.508.489-.437.045-.758-.302-1.15-.445a1.918 1.918 0 0 0-1.72.01l-.846-.845c.196-.418.285-.898.142-1.343-.107-.454-.41-.827-.561-1.254m5.73 2.321c.187-.285.642-.33.865-.062l2.896 2.907-3.27 3.228-.803-.818c.954-1.173 1.088-2.872.446-4.224-.116-.32-.366-.711-.134-1.031" fill="#fff"/><path d="M.117 68.964c.356-.142.695-.365 1.087-.356.472.09.767.507 1.096.818L15.722 82.8c.249.276.57.552.615.943-.018.382-.224.72-.383 1.058L.117 84.792V68.964" fill="#f96302"/><path d="M41.602 68.724c1.586-.133 3.164.435 4.474 1.298 1.025.685 1.978 1.476 2.709 2.463.874 1.165 1.408 2.588 1.417 4.055.027 1.672-.633 3.362-1.827 4.544a33.034 33.034 0 01-.81-.809c.16-.302.346-.622.293-.978-.089-.534-.454-.97-.82-1.334l-6.015-6.002c-.41-.4-.874-.836-1.48-.88-.33-.036-.624.133-.9.293-.258-.285-.615-.498-.775-.854.98-1.005 2.317-1.707 3.734-1.796m36.02 11.046c0-1.596 1.297-2.773 2.83-2.773 1.518 0 2.815 1.177 2.815 2.773 0 1.61-1.297 2.787-2.815 2.787-1.533 0-2.83-1.177-2.83-2.787zm2.83 2.323c1.26 0 2.255-.985 2.255-2.323 0-1.317-.995-2.31-2.255-2.31-1.276 0-2.27.993-2.27 2.31 0 1.338.994 2.323 2.27 2.323zm-.59-.713h-.486v-3.206h1.223c.76 0 1.135.28 1.135.912 0 .574-.361.823-.833.882l.914 1.412h-.546l-.847-1.39h-.56v1.39zm.582-1.802c.413 0 .781-.029.781-.522 0-.397-.36-.47-.7-.47h-.663v.992h.582z" fill="#fff"/></svg>