<svg xmlns="http://www.w3.org/2000/svg" width="138" height="35"  fill-rule="evenodd" xmlns:v="https://vecta.io/nano"><path fill="#fefefe" d="M0 34.26h32.76V0H0z"/><path d="M.798 1.342l24.345.003-1.322 1.326.532.535c.4-.275.853-.496 1.345-.53.444-.047.89.067 1.297.245.154.065.298.17.473.186.17-.01.299-.16.357-.31.05-.107.003-.232-.079-.306l-1.142-1.146 5.452-.003v5.323l-1.108-1.109c-.099-.102-.26-.153-.394-.091a.422.422 0 0 0-.214.206c-.05.19.036.378.111.548.23.487.332 1.035.263 1.57a2.573 2.573 0 0 1-.374 1.033 3.471 3.471 0 0 0-.147.233c.19.165.35.362.544.523l1.319-1.327v8.893c-.085.03-.18.089-.27.046-.116-.076-.206-.187-.303-.283l-3.185-3.177-1.27 1.264c.227.256.479.482.716.729l2.563 2.56c.072.075.158.142.196.24.015.107-.06.2-.09.299-.044.114.048.252.17.256.108.019.2-.053.269-.125l1.204-1.205v14.853H17.2l1.144-1.139-3.884-3.883-1.251 1.241c-.089.093-.187.18-.23.305-.02.121.093.237.211.244.105-.014.193-.083.299-.106.091-.007.163.066.229.124l2.311 2.315.584.597c.081.092.026.21-.02.302H7.708l2.098-2.097c.132-.125.265-.27.286-.46.03-.22-.194-.44-.414-.393-.183.035-.335.18-.525.18-.122-.01-.213-.098-.295-.178l-5.007-5.004c-.11-.113-.245-.221-.284-.382-.009-.19.127-.344.176-.518a.37.37 0 0 0-.368-.444.633.633 0 0 0-.397.207l-2.18 2.187V1.342" fill="#f96302"/><g fill="#fefefe"><path d="M23.346 3.144c.03-.033.082-.062.11-.013l6.862 6.86-2.406 2.41a.635.635 0 0 1-.378.19c-.2.017-.4-.165-.384-.368.008-.2.177-.354.181-.558.007-.127-.092-.222-.173-.311l-5.09-5.088c-.094-.092-.2-.207-.344-.197-.213.002-.374.2-.59.177-.125.003-.227-.095-.29-.197-.084-.178-.006-.39.122-.522l2.38-2.383m3.295.666c.066-.12.191-.233.338-.213.164.013.283.148.392.256l1.969 1.973c.125.12.272.239.301.42.017.187-.153.355-.334.374-.151.004-.288-.079-.42-.15-.28-.165-.594-.296-.926-.28-.17-.003-.335.066-.489.134l-.558-.567c.053-.148.122-.29.131-.447.023-.358-.122-.7-.302-.998-.091-.148-.164-.332-.102-.502M12.175 5.55l1.083-1.097.998.992c.109.105.01.282-.11.324-.103.014-.191-.055-.283-.088-.356-.174-.795-.193-1.15-.002-.091.039-.168.118-.266.133-.098-.079-.18-.177-.272-.262m-.223.21l1.424 1.418 2.237 2.232-1.288 1.287c-.088.098-.266.14-.351.02-.105-.113.01-.25.043-.364.04-.086-.03-.162-.086-.22a815.63 815.63 0 0 1-2.573-2.575c-.079-.071-.145-.16-.24-.21-.131-.03-.232.09-.36.096-.099-.01-.191-.109-.178-.21a.341.341 0 0 1 .108-.204l1.264-1.27m1.713.525a.195.195 0 0 1 .148-.256c.085-.013.155.052.213.11l1.067 1.062c.062.069.153.132.158.233a.18.18 0 0 1-.19.19c-.139 0-.243-.107-.369-.154a.66.66 0 0 0-.587.007l-.288-.282c.042-.145.081-.3.046-.45-.027-.17-.145-.302-.198-.46m6.287.255a.57.57 0 0 1 .325-.17c.22-.033.45.181.407.404-.03.197-.194.354-.18.561.033.145.15.243.246.345l5.025 5.023c.092.081.184.19.315.19.197 0 .348-.149.536-.18a.37.37 0 0 1 .403.393.642.642 0 0 1-.203.378l-2.529 2.528c-.108.107-.245.206-.407.206a.373.373 0 0 1-.37-.315c-.022-.23.19-.4.184-.63-.01-.109-.085-.198-.157-.276l-4.42-4.415 3.664 6.778c.019.033.036.07.051.109a6.59 6.59 0 0 0-.257.26l-7.31-3.622c-.386-.19-.765-.414-1.198-.465-.146-.02-.245.098-.35.173-.108.085-.253.138-.386.096-.161-.073-.273-.263-.224-.437a.74.74 0 0 1 .2-.302l2.36-2.354 3.69 1.789c.04.03.082.06.119.098.02-.022.035-.045.054-.069l-.045.007-1.972-3.676 2.429-2.426m-4.311.555c.06-.108.228-.121.306-.029l1.005 1.004-1.13 1.126c-.085-.099-.2-.178-.267-.292.11-.184.224-.371.255-.587.055-.3.006-.615-.123-.89-.035-.105-.114-.227-.046-.332m-5.511.492c.066-.068.137-.14.233-.163s.214.038.228.144c.022.114-.064.21-.087.322-.014.089.06.15.112.21l2.626 2.626c.06.055.121.124.207.144.105-.01.193-.078.294-.101.125-.014.24.121.201.24-.016.088-.084.153-.144.216l-1.28 1.276c-.076.076-.174.154-.286.128a.241.241 0 0 1-.137-.138c-.033-.144.12-.262.085-.406-.033-.056-.079-.099-.122-.144l-1.2-1.199-.427.426a5.672 5.672 0 0 1-.29-.291l.43-.427-1.057-1.054c-.076-.072-.141-.151-.229-.203-.16-.053-.315.174-.47.05-.125-.09-.084-.267.017-.359l1.296-1.297"/><path d="M8.45 9.292c.097-.062.245-.023.293.089.044.134-.077.248-.08.381-.003.068.052.118.095.164l2.725 2.723c.165.178.374-.127.55.004.116.092.077.273-.022.358l-1.28 1.284c-.069.065-.138.144-.233.173-.104.03-.233-.035-.247-.147-.02-.131.1-.233.093-.36a.37.37 0 0 0-.093-.146l-2.576-2.576c-.083-.076-.15-.171-.259-.21-.119-.007-.217.082-.331.095-.1.003-.185-.085-.189-.181-.008-.101.064-.184.132-.252L8.304 9.41c.048-.043.09-.085.146-.118m-2.374 2.347l.585-.58 1.027 1.02c.06.066.131.125.164.21.04.16-.145.339-.305.266s-.288-.2-.444-.286c-.26-.16-.561-.262-.87-.226l-.265-.275c.026-.053.069-.09.108-.13M4.645 13.07l1.092-1.09 3.21 3.208c.109.12.255.02.372-.023.118-.053.256.052.254.178 0 .084-.05.156-.105.215l-1.33 1.33c-.063.062-.142.125-.234.118-.102.01-.2-.089-.19-.188s.088-.19.088-.294c.007-.089-.068-.145-.12-.205l-3.135-3.127.098-.122m24.636-.321l1.21 1.21c.13.123.037.365-.134.391-.157.023-.279-.102-.4-.183-.325-.224-.71-.433-1.116-.365a2.43 2.43 0 0 1-.302-.315l.742-.738m-24.971.666c.121.045.197.184.295.27-.051.38.13.738.342 1.037.063.094.138.183.177.291.043.145-.098.296-.243.28-.082 0-.137-.07-.19-.118l-1.077-1.077.697-.683m7.303 1.851a4.031 4.031 0 0 1 2.035-.095c1.142.243 2.154.913 2.961 1.743.792.801 1.422 1.805 1.635 2.925a3.955 3.955 0 0 1-.086 1.858 4.493 4.493 0 0 1-.886 1.614l-.522-.53c0-.09.056-.166.072-.25a.82.82 0 0 0-.22-.824l-4.87-4.875c-.148-.151-.336-.273-.55-.289-.173-.022-.344.04-.508.099-.065.036-.109-.046-.151-.079l-.407-.413-.003-.04a4.363 4.363 0 0 1 1.5-.844m4.425-.181c.15.05.288.125.43.197l1.585.782a.552.552 0 0 1 .128.095l1.347 1.349c.242.26.547.46.88.585a1.06 1.06 0 0 0 .728.006c.118-.039.245-.086.37-.046a.37.37 0 0 1 .227.308c-.01.181-.125.332-.246.457l-1.214 1.21c-.109.099-.233.201-.385.218-.216.032-.43-.197-.364-.407s.148-.43.112-.654c-.052-.373-.265-.705-.502-.99l-2.676-2.68-.42-.43m10.011.893l.743-.742c.108.09.203.194.306.293-.044.328.067.652.24.928.087.158.215.293.293.457.043.08.014.167-.016.246a4.18 4.18 0 0 1 1.067 1.038c.332.469.566 1.027.551 1.611.004.555-.235 1.087-.587 1.507-.095-.098-.207-.188-.289-.299.017-.12.076-.24.046-.361-.032-.158-.154-.269-.263-.377l-2.593-2.59c-.085-.086-.187-.164-.309-.174a.761.761 0 0 0-.335.055l-.302-.295c.437-.374 1.005-.613 1.587-.584.222-.007.439.046.655.095l-.794-.808M8.873 17.905a4.67 4.67 0 0 1 .804-1.372l.51.51c.032.104-.053.203-.07.308-.086.283.026.59.233.794l4.792 4.793c.155.166.342.324.578.361.21.033.418-.04.61-.112l.532.529a4.483 4.483 0 0 1-1.316.791 4.009 4.009 0 0 1-2.288.158c-1.152-.253-2.166-.946-2.977-1.79-.749-.784-1.353-1.746-1.566-2.82a3.94 3.94 0 0 1 .158-2.15m14.919.949c.04-.5.26-.974.587-1.349l.296.296c-.036.118-.091.243-.059.367.02.112.095.2.174.28l2.593 2.593c.102.098.2.216.345.256.131.035.266-.01.394-.05l.296.301c-.414.343-.93.582-1.475.582-.529.023-1.047-.164-1.487-.44a3.856 3.856 0 0 1-.853-.735c.115.385.089.814-.092 1.175-.177.355-.453.644-.725.923l-.302-.299c.085-.138.14-.302.088-.462-.062-.164-.197-.283-.315-.408l-.735-.739c-.144-.134-.299-.288-.506-.302-.12-.012-.23.05-.331.108l-.302-.298c.394-.398.844-.807 1.42-.88.474-.078.95.124 1.284.45-.209-.42-.34-.893-.295-1.369M6.49 20a.599.599 0 0 1 .364-.178c.227-.013.433.224.37.444-.048.167-.17.315-.176.495.013.157.144.27.25.374l5.054 5.056c.079.075.167.151.28.16.19 0 .337-.14.517-.183.217-.043.434.154.424.37a.611.611 0 0 1-.19.387l-2.544 2.545c-.111.108-.248.203-.41.203a.365.365 0 0 1-.364-.38c.02-.197.184-.355.187-.559-.007-.12-.102-.213-.178-.298l-2.265-2.265c-.03-.023-.068-.089-.11-.043l-.78.772-.531-.536.78-.78c0-.014.005-.044.005-.057l-2.121-2.113c-.11-.102-.21-.23-.36-.266-.208-.013-.369.148-.562.184-.25.042-.476-.24-.39-.474.041-.163.174-.281.289-.393L6.489 20m14.658.886l1.152 1.139 2.212 2.216c.052.043.102.1.171.115.141.012.252-.125.393-.098.086.028.165.11.154.206 0 .127-.108.217-.187.302l-1.381 1.376c-.102.11-.293.055-.354-.07-.093-.154.157-.318.027-.46a1093.76 1093.76 0 0 1-2.855-2.851c-.067-.062-.126-.142-.208-.185-.142-.039-.254.08-.385.096-.103-.01-.2-.098-.194-.204-.01-.115.076-.203.148-.28l1.307-1.302m-2.929 2.924l1.169-1.158 1.057 1.06c.119.115-.007.289-.128.342-.085.01-.164-.043-.24-.076-.302-.147-.649-.22-.981-.135-.21.043-.394.162-.578.27l-.299-.302m-1.595 1.599l1.365-1.367 2.2 2.19 1.691 1.688-1.334 1.342a.652.652 0 0 1-.233.145c-.081-.03-.183-.06-.209-.152-.049-.154.111-.276.092-.426-.066-.129-.182-.22-.28-.322a8459.39 8459.39 0 0 1-2.392-2.393c-.142-.131-.26-.288-.427-.388-.168-.032-.319.182-.48.067-.138-.09-.097-.286.007-.384m3.184-.815c-.053-.134.071-.293.213-.27.066.018.115.06.161.106l1.034 1.038c.113.114.255.213.303.378-.044.071-.089.17-.188.18-.16.017-.28-.112-.424-.165a.703.703 0 0 0-.633.003l-.313-.311a.682.682 0 0 0 .053-.496c-.039-.168-.15-.305-.206-.463m2.111.857c.069-.105.235-.121.319-.023l1.066 1.073-1.204 1.192-.296-.302c.35-.433.4-1.06.164-1.56-.043-.118-.135-.262-.049-.38"/></g><path d="M.798 26.758c.13-.052.256-.134.4-.13.174.032.282.186.404.3l4.944 4.939c.09.1.21.203.226.347-.006.141-.082.266-.141.39l-5.833-.002v-5.844" fill="#f96302"/><path d="M16.078 26.67c.585-.05 1.166.161 1.648.479.378.253.73.546.997.91.322.43.52.955.523 1.496a2.337 2.337 0 0 1-.674 1.678l-.298-.299c.06-.111.128-.23.108-.36-.032-.199-.167-.359-.301-.493l-2.216-2.216c-.151-.148-.322-.309-.545-.326-.122-.012-.23.05-.332.109-.094-.105-.226-.184-.285-.315.36-.37.853-.63 1.375-.663m13.267 4.077c0-.588.479-1.023 1.044-1.023.559 0 1.036.435 1.036 1.023 0 .595-.477 1.03-1.036 1.03a1.027 1.027 0 0 1-1.044-1.03zm1.044.858c.462 0 .83-.364.83-.858a.83.83 0 0 0-.83-.852.83.83 0 0 0-.837.852c0 .494.366.858.837.858zm-.219-.263h-.178v-1.183h.45c.28 0 .418.102.418.336 0 .21-.133.305-.307.325l.337.522h-.201l-.312-.514h-.207v.514zm.215-.665c.152 0 .288-.01.288-.193 0-.146-.133-.174-.258-.174h-.245v.367h.215z" fill="#fefefe"/><path d="M35.307 33.413H79.95v-5.544H35.307zM35.359.65h9.362c4.764 0 6.911 3.187 6.911 7.381 0 4.899-2.785 7.449-7.851 7.449h-2.182v9.127h-6.24V.649zm6.24 10.334h1.175c1.577 0 2.416-.906 2.416-2.919 0-1.98-.839-2.92-2.416-2.92H41.6v5.839zM53.175 6.454h5.84v2.885h.066c.67-2.18 2.282-3.355 4.06-3.355h.972v5.638a7.816 7.816 0 00-1.509-.136c-2.148 0-3.389.84-3.389 3.222v9.898h-6.04V6.454zM72.67 25.076c-7.079 0-7.717-4.328-7.717-9.563 0-4.764.905-9.529 7.717-9.529 7.08 0 7.719 4.329 7.719 9.562 0 4.766-.907 9.53-7.719 9.53m0-3.892c1.376 0 1.678-1.073 1.678-5.638 0-4.596-.302-5.67-1.678-5.67-1.342 0-1.678 1.074-1.678 5.67 0 4.565.336 5.638 1.678 5.638" fill="#53565a"/><path d="M98.76.265h-3.755l-4.238 8.64L86.56.264h-3.954l6.08 12.128-6.563 12.54h3.76l4.71-9.295 4.616 9.294h3.963l-6.565-12.539zm5.82.741h-3.41V6.27h-2.632v2.804h2.632V21.27c0 2.32.667 3.865 3.932 3.865 1.21 0 1.977-.14 2.346-.208l.237-.044v-2.89l-.533.062c-.258.034-.55.073-1.003.073-1.246 0-1.568-.357-1.568-1.736V9.074h3.137V6.27h-3.137V1.006zm11.766 4.792c-1.856 0-2.954 1.152-3.692 2.412V6.27h-3.413v18.662h3.413V13.205c0-2.725 2.042-3.996 3.423-3.996.686 0 1.027.058 1.276.101l.205.031.325.041V6.11l-.16-.08c-.313-.156-.763-.232-1.377-.232m11.182 9.609v4.04c0 1.65-1.6 3.153-3.356 3.153-1.553 0-2.274-.895-2.274-2.815 0-1.538.456-2.126 1.244-2.62.494-.3 1.194-.519 1.934-.75.878-.275 1.78-.556 2.452-1.008zm4.5 7.016c-.07.052-.174.11-.5.11-.516 0-.589-.248-.589-1.163V11.282c0-1.917 0-5.484-5.788-5.484-4.4 0-6.362 1.92-6.362 6.226v.29h3.412v-.458c0-2.128.973-3.254 2.815-3.254 1.709 0 2.612.822 2.612 2.377 0 1.482 0 1.879-1.852 2.456l-3.813 1.147c-2.363.72-3.613 2.542-3.613 5.27 0 3.58 1.853 5.552 5.215 5.552 1.63 0 3.222-.83 4.22-2.158.387 1.888 1.796 1.888 2.763 1.888.688 0 1.393-.12 1.701-.172l.24-.04v-2.85l-.46.35zM136.894 6l-.543 1.812h-.013L135.794 6h-1.105v3h.694V6.941h.013L136.018 9h.655l.621-2.059h.011V9H138V6h-1.106zM132 6v.682h.732V9h.734V6.682h.731V6H132z" fill="#f96302"/></svg>